<?xml version="1.0" standalone="no"?>
<!DOCTYPE svg PUBLIC "-//W3C//DTD SVG 20010904//EN"
 "http://www.w3.org/TR/2001/REC-SVG-20010904/DTD/svg10.dtd">
<svg version="1.0" xmlns="http://www.w3.org/2000/svg"
 width="512.000000pt" height="512.000000pt" viewBox="0 0 512.000000 512.000000"
 preserveAspectRatio="xMidYMid meet">
<metadata>
Created by potrace 1.14, written by Peter Selinger 2001-2017
</metadata>
<g transform="translate(0.000000,512.000000) scale(0.100000,-0.100000)"
fill="#000000" stroke="none">
<path d="M2379 5116 c-2 -2 -35 -7 -74 -10 -212 -18 -503 -90 -715 -178 -628
-259 -1116 -742 -1385 -1369 -48 -114 -125 -345 -139 -419 -2 -14 -11 -56 -19
-95 -16 -71 -23 -120 -37 -255 -9 -79 -5 -461 5 -520 3 -19 15 -87 25 -150 25
-150 79 -342 134 -485 46 -118 149 -331 184 -382 10 -15 39 -59 63 -98 143
-227 368 -465 613 -648 317 -238 738 -417 1113 -473 21 -3 49 -7 63 -10 105
-19 465 -26 605 -12 321 33 656 136 947 290 647 344 1111 944 1286 1663 26
106 34 147 48 245 14 104 19 189 19 345 0 230 -11 349 -50 525 -9 41 -18 83
-20 92 -43 203 -178 524 -311 738 -326 528 -857 931 -1452 1104 -113 33 -183
50 -247 61 -16 3 -41 7 -55 10 -14 3 -45 8 -70 11 -25 3 -56 7 -70 10 -29 6
-456 15 -461 10z"/>
</g>
</svg>
